<svg xmlns="http://www.w3.org/2000/svg" viewBox="0 0 400 400" fill="none" stroke="currentColor" stroke-width="1" stroke-linejoin="round" stroke-linecap="round">
  
  <g>
    
    <path d="M 60 240 L 120 210 L 180 240 L 120 270 Z"></path>
    <path d="M 60 240 L 60 300 L 120 330 L 120 270 Z"></path>
    <path d="M 120 270 L 120 330 L 180 300 L 180 240 Z"></path>
    
    <path d="M 180 240 L 240 210 L 300 240 L 240 270 Z"></path>
    <path d="M 180 240 L 180 300 L 240 330 L 240 270 Z"></path>
    <path d="M 240 270 L 240 330 L 300 300 L 300 240 Z"></path>
  </g>
  
  <g>
    <path d="M 120 180 L 180 150 L 240 180 L 180 210 Z"></path>
    <path d="M 120 180 L 120 240 L 180 270 L 180 210 Z"></path>
    <path d="M 180 210 L 180 270 L 240 240 L 240 180 Z"></path>
  </g>
  
  <g>
    <path d="M 150 120 L 210 90 L 270 120 L 210 150 Z"></path>
    <path d="M 150 120 L 150 180 L 210 210 L 210 150 Z"></path>
    <path d="M 210 150 L 210 210 L 270 180 L 270 120 Z"></path>
  </g>
</svg>